<svg width="839" height="293" viewBox="0 0 839 293" fill="none" xmlns="http://www.w3.org/2000/svg">
<path d="M0.384369 71.375H121.041V98.6562L39.4781 198.219L33.8531 202.719H121.041V230H0.384369V202.719L81.9469 103.156L87.5719 98.6562H0.384369V71.375ZM168.178 182.188C168.178 190.625 169.866 196.906 173.241 201.031C176.803 205.156 181.866 207.594 188.428 208.344V231.125C187.678 231.312 186.459 231.406 184.772 231.406C178.397 231.406 172.209 230.562 166.209 228.875C160.397 227.188 155.241 224.469 150.741 220.719C146.241 216.969 142.678 212 140.053 205.812C137.616 199.625 136.397 192.031 136.397 183.031C136.397 174.406 138.178 167 141.741 160.812C145.491 154.438 150.178 149.281 155.803 145.344C161.616 141.219 168.178 138.219 175.491 136.344C182.803 134.281 190.209 133.25 197.709 133.25H210.084V153.219H203.897C200.147 153.219 196.209 153.594 192.084 154.344C187.959 155.094 184.116 156.5 180.553 158.562C176.991 160.625 173.991 163.625 171.553 167.562C169.303 171.312 168.178 176.188 168.178 182.188ZM255.647 183.031C255.647 184.531 255.741 186.781 255.928 189.781C256.116 192.594 256.491 195.5 257.053 198.5C257.616 201.5 258.459 204.219 259.584 206.656C260.897 209.094 262.584 210.688 264.647 211.438L255.647 230.281C253.209 230.281 250.584 229.719 247.772 228.594C245.147 227.469 242.522 225.875 239.897 223.812C237.459 221.75 235.303 219.5 233.428 217.062C231.741 214.438 230.428 211.625 229.491 208.625C227.616 213.312 223.866 217.531 218.241 221.281C212.803 224.844 206.709 227.469 199.959 229.156V207.781C204.459 206.844 208.491 205.062 212.053 202.438C215.803 199.625 218.991 196.344 221.616 192.594V133.25C221.616 124.062 221.147 116.75 220.209 111.312C219.272 105.875 217.678 101.938 215.428 99.5C213.178 96.875 210.366 95.2812 206.991 94.7188C203.803 93.9688 199.959 93.5938 195.459 93.5938C191.334 93.5938 187.397 94.1562 183.647 95.2812C180.084 96.2188 176.709 97.4375 173.522 98.9375C170.522 100.25 167.803 101.75 165.366 103.438C163.116 105.125 161.428 106.438 160.303 107.375L147.647 87.9688C149.522 85.9062 152.334 83.8438 156.084 81.7812C159.834 79.5312 164.147 77.5625 169.022 75.875C173.897 74.1875 179.147 72.875 184.772 71.9375C190.584 70.8125 196.584 70.25 202.772 70.25C208.397 70.25 213.834 70.8125 219.084 71.9375C224.522 73.0625 229.397 74.9375 233.709 77.5625C238.209 80.1875 242.053 83.75 245.241 88.25C248.616 92.5625 250.959 98 252.272 104.562C253.584 111.125 254.428 117.781 254.803 124.531C255.366 131.094 255.647 137.656 255.647 144.219V180.781V183.031ZM311.222 71.375L314.878 87.4062V292.438H280.566V71.375H311.222ZM419.222 119.469C421.472 128.094 422.597 137.75 422.597 148.438C422.597 159.125 421.284 169.531 418.659 179.656C416.222 189.594 412.378 198.406 407.128 206.094C402.066 213.781 395.597 219.969 387.722 224.656C380.034 229.156 370.941 231.406 360.441 231.406C353.878 231.406 347.597 230.656 341.597 229.156C335.784 227.656 330.722 225.688 326.409 223.25V194C332.597 201.312 340.191 204.969 349.191 204.969C354.816 204.969 359.878 203.562 364.378 200.75C369.066 197.938 373.003 194.188 376.191 189.5C379.566 184.625 382.191 178.906 384.066 172.344C385.941 165.594 386.878 158.469 386.878 150.969C386.878 143.656 386.034 136.719 384.347 130.156C382.659 123.594 380.222 117.781 377.034 112.719C374.034 107.656 370.284 103.625 365.784 100.625C361.472 97.625 356.409 96.125 350.597 96.125C345.722 96.125 341.222 97.1562 337.097 99.2188C333.159 101.094 329.597 103.812 326.409 107.375V77.5625C330.722 75.125 335.503 73.25 340.753 71.9375C346.003 70.625 351.441 69.9688 357.066 69.9688C363.253 69.9688 369.534 70.8125 375.909 72.5C382.284 74.1875 388.191 77 393.628 80.9375C399.253 84.875 404.316 90.0312 408.816 96.4062C413.316 102.781 416.784 110.469 419.222 119.469ZM465.516 181.625C465.516 188 466.359 193.062 468.047 196.812C469.734 200.375 472.078 203.094 475.078 204.969C478.078 206.656 481.453 207.781 485.203 208.344C489.141 208.906 493.359 209.188 497.859 209.188V230C495.422 230.375 492.891 230.656 490.266 230.844C488.203 231.031 485.766 231.125 482.953 231.125C480.141 231.312 477.328 231.406 474.516 231.406C471.703 231.406 468.891 231.312 466.078 231.125C463.266 230.938 460.734 230.656 458.484 230.281C452.109 228.969 447.141 226.156 443.578 221.844C440.016 217.531 437.297 212.75 435.422 207.5C433.547 202.062 432.328 196.812 431.766 191.75C431.391 186.688 431.203 182.75 431.203 179.938V176.562V11.4688H465.516V181.625ZM539.091 230H504.778V71.375H539.091V230ZM542.184 20.75C542.184 26.375 540.216 31.1562 536.278 35.0938C532.341 38.8438 527.559 40.7188 521.934 40.7188C516.309 40.7188 511.528 38.75 507.591 34.8125C503.841 30.875 501.966 26.1875 501.966 20.75C501.966 15.125 503.934 10.3438 507.872 6.40625C511.809 2.46875 516.497 0.5 521.934 0.5C527.559 0.5 532.341 2.46875 536.278 6.40625C540.216 10.3438 542.184 15.125 542.184 20.75ZM588.478 71.375L592.134 87.4062V230H558.103V71.375H588.478ZM676.228 88.8125C679.416 92 681.853 95.75 683.541 100.062C685.416 104.188 686.728 108.594 687.478 113.281C688.416 117.781 688.978 122.375 689.166 127.062C689.353 131.75 689.447 136.344 689.447 140.844V224.375V230H655.134V143.656C655.134 137.281 654.853 131.188 654.291 125.375C653.728 119.562 652.416 114.406 650.353 109.906C648.291 105.406 645.478 101.938 641.916 99.5C638.353 96.875 633.384 95.5625 627.009 95.5625C624.384 95.5625 620.822 96.0312 616.322 96.9688C612.009 97.7188 607.791 99.0312 603.666 100.906V79.25C608.728 76.625 614.166 74.375 619.978 72.5C625.978 70.625 631.791 69.6875 637.416 69.6875C645.853 69.6875 652.978 71.4688 658.791 75.0312C664.603 78.4062 670.416 83 676.228 88.8125ZM775.397 150.406L838.397 230H799.584L753.459 169.25V130.156L792.834 71.375H831.084L775.397 150.406ZM707.616 230V11.4688H741.928V230H707.616Z" fill="white"/>
</svg>
